<?xml version="1.0" encoding="UTF-8"?><svg id="b" xmlns="http://www.w3.org/2000/svg" width="330.97" height="463.28" viewBox="0 0 330.97 463.28"><defs><style>.d{fill:#fff;stroke:#000;opacity:0.1;}</style></defs><g id="c"><path class="d" d="m198.45,462.78c-.85-5.43-1.43-11.19-1.69-17.2-.01-.29-.02-.59-.01-.89.08-4.25,1.99-7.66,4.28-7.62.57,0,1.08.23,1.57.63.92.75,1.99,1.16,3.14,1.16,3.57,0,6.47-4.07,6.47-9.1s-2.9-9.1-6.47-9.1c-1.15,0-2.21.4-3.14,1.16-.49.4-1,.62-1.57.63-2.28.04-4.2-3.37-4.28-7.62,0-.3,0-.52,0-.82.26-6.04.81-11.83,1.71-17.27-5.44-.85-11.19-1.43-17.2-1.69-.29-.01-.59-.02-.89-.01-4.25.08-7.66,2-7.62,4.28.01.57.23,1.08.63,1.57.75.92,1.16,1.99,1.16,3.14,0,3.57-4.07,6.47-9.1,6.47s-9.1-2.9-9.1-6.47c0-1.15.4-2.21,1.16-3.14.4-.49.62-1,.63-1.57.04-2.28-3.36-4.2-7.62-4.28-.3,0-.52,0-.81,0-6.04.26-11.83.8-17.27,1.7.89,5.45,1.5,11.23,1.76,17.27.01.29.01.51,0,.82-.08,4.25-1.99,7.66-4.28,7.62-.57-.01-1.08-.23-1.57-.63-.92-.75-1.99-1.16-3.14-1.16-3.57,0-6.47,4.07-6.47,9.1s2.89,9.1,6.47,9.1c1.15,0,2.21-.4,3.14-1.16.49-.4,1-.62,1.57-.63,2.28-.04,4.2,3.37,4.28,7.62,0,.3,0,.6-.01.89-.26,6-.9,11.76-1.75,17.2h66.01Z"/><path class="d" d="m.5,198.7c5.44.85,11.19,1.43,17.2,1.7.29.01.59.02.89.01,4.25-.08,7.66-1.99,7.62-4.28-.01-.57-.23-1.08-.63-1.57-.75-.92-1.16-1.99-1.16-3.14,0-3.57,4.07-6.47,9.1-6.47s9.1,2.9,9.1,6.47c0,1.15-.4,2.21-1.16,3.14-.4.49-.62,1-.63,1.57-.04,2.28,3.36,4.2,7.62,4.28.3,0,.52,0,.82,0,6.04-.26,11.83-.81,17.27-1.71.85,5.44,1.43,11.19,1.69,17.2.01.29.02.59.01.89-.08,4.25-1.99,7.66-4.28,7.62-.57-.01-1.08-.23-1.57-.63-.92-.75-1.99-1.16-3.14-1.16-3.57,0-6.47,4.07-6.47,9.1s2.89,9.1,6.47,9.1c1.15,0,2.21-.4,3.14-1.16.49-.4,1-.62,1.57-.63,2.28-.04,4.2,3.36,4.28,7.61,0,.3,0,.52,0,.81-.26,6.04-.8,11.83-1.7,17.27-5.45-.89-11.23-1.5-17.27-1.76-.29-.01-.51-.01-.82,0-4.25.08-7.66,1.99-7.62,4.28.01.57.23,1.08.63,1.57.75.92,1.16,1.99,1.16,3.14,0,3.57-4.07,6.46-9.1,6.46s-9.1-2.89-9.1-6.46c0-1.15.4-2.21,1.16-3.14.4-.49.62-1,.63-1.57.04-2.28-3.36-4.2-7.62-4.28-.3,0-.6,0-.89.01-6,.26-11.76.9-17.2,1.75v-66.01Z"/><path class="d" d="m.5,330.74c5.44.85,11.19,1.44,17.2,1.69.29.01.59.02.89.01,4.25-.08,7.66-1.99,7.62-4.28-.01-.57-.23-1.08-.63-1.57-.75-.92-1.16-1.99-1.16-3.14,0-3.57,4.07-6.46,9.1-6.46s9.1,2.9,9.1,6.46c0,1.15-.4,2.21-1.16,3.14-.4.49-.62,1-.63,1.57-.04,2.28,3.36,4.2,7.62,4.28.3,0,.52,0,.82,0,6.04-.26,11.83-.81,17.27-1.71.85,5.44,1.43,11.19,1.69,17.2.01.29.02.59.01.89-.08,4.25-1.99,7.66-4.28,7.62-.57-.01-1.08-.23-1.57-.63-.92-.75-1.99-1.16-3.14-1.16-3.57,0-6.47,4.07-6.47,9.1s2.89,9.1,6.47,9.1c1.15,0,2.21-.4,3.14-1.16.49-.4,1-.62,1.57-.63,2.28-.04,4.2,3.37,4.28,7.62,0,.3,0,.52,0,.81-.26,6.04-.8,11.83-1.7,17.27-5.45-.89-11.23-1.5-17.27-1.76-.29-.01-.51-.01-.82,0-4.25.08-7.66,1.99-7.62,4.28.01.57.23,1.08.63,1.57.75.92,1.16,1.99,1.16,3.14,0,3.57-4.07,6.46-9.1,6.46s-9.1-2.89-9.1-6.46c0-1.15.4-2.21,1.16-3.14.4-.49.62-1,.63-1.57.04-2.28-3.36-4.2-7.62-4.28-.3,0-.6,0-.89.01-6,.26-11.76.9-17.2,1.75v-66.01Z"/><path class="d" d="m198.45.5c-.85,5.43-1.43,11.19-1.69,17.2-.01.29-.02.59-.01.89.08,4.25,1.99,7.66,4.28,7.62.57-.01,1.08-.23,1.57-.63.92-.75,1.99-1.16,3.14-1.16,3.57,0,6.47,4.07,6.47,9.1s-2.9,9.1-6.47,9.1c-1.15,0-2.21-.4-3.14-1.16-.49-.4-1-.62-1.57-.63-2.28-.04-4.2,3.36-4.28,7.62,0,.3,0,.52,0,.82.26,6.04.81,11.83,1.71,17.27-5.44.85-11.19,1.43-17.2,1.69-.29.01-.59.02-.89.01-4.25-.08-7.66-1.99-7.62-4.28.01-.57.23-1.09.63-1.57.75-.92,1.16-1.99,1.16-3.14,0-3.57-4.07-6.47-9.1-6.47s-9.1,2.89-9.1,6.47c0,1.15.4,2.21,1.16,3.14.4.49.62,1,.63,1.57.04,2.28-3.36,4.2-7.62,4.28-.3,0-.52,0-.81,0-6.04-.26-11.83-.8-17.27-1.7.89-5.45,1.5-11.23,1.76-17.27.01-.29.01-.51,0-.82-.08-4.25-1.99-7.66-4.28-7.62-.57.01-1.08.23-1.57.63-.92.75-1.99,1.16-3.14,1.16-3.57,0-6.47-4.07-6.47-9.1s2.89-9.1,6.47-9.1c1.15,0,2.21.4,3.14,1.16.49.4,1,.62,1.57.63,2.28.04,4.2-3.37,4.28-7.62,0-.3,0-.6-.01-.89-.26-6-.9-11.76-1.75-17.2h66.01Z"/><path class="d" d="m.5,132.54c5.44-.85,11.19-1.43,17.2-1.7.29-.01.59-.02.89-.01,4.25.08,7.66,1.99,7.62,4.28-.01.57-.23,1.08-.63,1.57-.75.92-1.16,1.99-1.16,3.14,0,3.57,4.07,6.47,9.1,6.47s9.1-2.9,9.1-6.47c0-1.15-.4-2.21-1.16-3.14-.4-.49-.62-1-.63-1.57-.04-2.28,3.36-4.2,7.62-4.28.3,0,.52,0,.82,0,6.04.26,11.83.81,17.27,1.71.85-5.44,1.43-11.19,1.69-17.2.01-.29.02-.59.01-.89-.08-4.25-1.99-7.66-4.28-7.62-.57.01-1.08.23-1.57.63-.92.75-1.99,1.16-3.14,1.16-3.57,0-6.47-4.07-6.47-9.1s2.89-9.1,6.47-9.1c1.15,0,2.21.4,3.14,1.16.49.4,1,.62,1.57.63,2.28.04,4.2-3.36,4.28-7.62,0-.3,0-.52,0-.81-.26-6.04-.8-11.83-1.7-17.27-5.45.89-11.23,1.5-17.27,1.76-.29.01-.51.01-.82,0-4.25-.08-7.66-1.99-7.62-4.28.01-.57.23-1.08.63-1.57.75-.92,1.16-1.99,1.16-3.14,0-3.57-4.07-6.47-9.1-6.47s-9.1,2.89-9.1,6.47c0,1.15.4,2.21,1.16,3.14.4.49.62,1,.63,1.57.04,2.28-3.36,4.2-7.62,4.28-.3,0-.6,0-.89-.01-6-.26-11.76-.9-17.2-1.75v66.01Z"/><path class="d" d="m.51.5h66.01c-.85,5.44-1.49,11.2-1.75,17.2-.01.29-.02.59-.01.89.08,4.25,1.99,7.66,4.28,7.62.57-.01,1.09-.23,1.57-.63.92-.75,1.99-1.16,3.14-1.16,3.57,0,6.47,4.07,6.47,9.1s-2.89,9.1-6.47,9.1c-1.15,0-2.21-.4-3.14-1.16-.49-.4-1-.62-1.57-.63-2.28-.04-4.2,3.36-4.28,7.62,0,.3,0,.52,0,.82.26,6.04.86,11.82,1.76,17.27-5.44.89-11.23,1.44-17.27,1.7-.29.01-.51.01-.81,0-4.25-.08-7.66-1.99-7.62-4.28.01-.57.23-1.08.63-1.57.75-.92,1.16-1.99,1.16-3.14,0-3.57-4.07-6.47-9.1-6.47s-9.1,2.89-9.1,6.47c0,1.15.4,2.21,1.16,3.14.4.49.62,1,.63,1.57.04,2.28-3.36,4.2-7.62,4.28-.3,0-.6,0-.89-.01-6-.26-11.76-.84-17.19-1.69V.5Z"/><path class="d" d="m132.49,132.55c-.89-5.44-1.44-11.23-1.7-17.27-.01-.29-.01-.51,0-.81.08-4.25,1.99-7.66,4.28-7.62.57.01,1.08.23,1.57.63.92.75,1.99,1.16,3.14,1.16,3.57,0,6.47-4.07,6.47-9.1s-2.9-9.1-6.47-9.1c-1.15,0-2.21.4-3.14,1.16-.49.4-1,.62-1.57.63-2.28.04-4.2-3.37-4.28-7.62,0-.3,0-.6,0-.89.26-6,.84-11.76,1.69-17.2,5.44.89,11.23,1.44,17.27,1.71.29.01.51.01.82,0,4.25-.08,7.66-1.99,7.61-4.28-.01-.57-.23-1.08-.63-1.57-.75-.92-1.16-1.99-1.16-3.14,0-3.57,4.07-6.46,9.1-6.46s9.1,2.9,9.1,6.46c0,1.15-.4,2.21-1.16,3.14-.4.49-.62,1-.63,1.57-.04,2.28,3.36,4.2,7.62,4.28.3,0,.59,0,.89-.01,6.01-.26,11.76-.84,17.2-1.69.85,5.43,1.43,11.19,1.69,17.19.01.29.02.59,0,.89-.08,4.25-1.99,7.66-4.28,7.62-.57-.01-1.09-.23-1.57-.63-.92-.75-1.99-1.16-3.14-1.16-3.57,0-6.47,4.07-6.47,9.1s2.9,9.1,6.47,9.1c1.15,0,2.21-.4,3.14-1.16.49-.4,1-.62,1.57-.63,2.28-.04,4.2,3.37,4.28,7.62,0,.3,0,.52,0,.81-.26,6.04-.8,11.83-1.7,17.27-5.43-.85-11.2-1.49-17.2-1.75-.29-.01-.59-.02-.89-.01-4.25.08-7.66,1.99-7.62,4.28.01.57.23,1.08.63,1.57.75.92,1.16,1.99,1.16,3.14,0,3.57-4.07,6.46-9.1,6.46s-9.1-2.89-9.1-6.46c0-1.15.4-2.21,1.16-3.14.4-.49.62-1,.63-1.57.05-2.28-3.36-4.2-7.61-4.28-.3,0-.52,0-.82,0-6.04.26-11.82.87-17.27,1.76Z"/><path class="d" d="m198.51,66.53c5.44-.89,11.23-1.44,17.27-1.7.29-.01.51-.01.81,0,4.25.08,7.66,2,7.61,4.28-.01.57-.23,1.08-.63,1.57-.75.92-1.16,1.99-1.16,3.14,0,3.57,4.07,6.46,9.1,6.46s9.1-2.89,9.1-6.46c0-1.15-.4-2.21-1.16-3.14-.4-.49-.62-1-.63-1.57-.05-2.28,3.37-4.2,7.62-4.28.3,0,.6,0,.89.01,6,.26,11.76.84,17.2,1.69-.89,5.44-1.44,11.23-1.71,17.27-.01.29-.01.51,0,.81.08,4.25,1.99,7.66,4.28,7.62.57-.01,1.08-.23,1.57-.63.92-.75,1.99-1.16,3.14-1.16,3.57,0,6.47,4.07,6.47,9.1s-2.9,9.1-6.47,9.1c-1.15,0-2.21-.4-3.14-1.16-.49-.4-1-.62-1.57-.63-2.28-.04-4.2,3.37-4.28,7.62,0,.3,0,.6.01.89.26,6,.84,11.76,1.7,17.2-5.43.85-11.19,1.43-17.19,1.69-.29.01-.59.02-.89,0-4.25-.08-7.66-1.99-7.62-4.28.01-.57.23-1.08.63-1.57.75-.92,1.16-1.99,1.16-3.14,0-3.57-4.07-6.46-9.1-6.46s-9.1,2.9-9.1,6.46c0,1.15.4,2.21,1.16,3.14.4.49.62,1,.63,1.57.04,2.28-3.36,4.2-7.61,4.28-.3,0-.52,0-.81,0-6.04-.26-11.83-.8-17.27-1.7.85-5.43,1.49-11.19,1.75-17.2.01-.29.02-.59.01-.89-.08-4.25-1.99-7.66-4.28-7.62-.57.01-1.08.23-1.57.63-.92.75-1.99,1.16-3.14,1.16-3.57,0-6.46-4.07-6.46-9.1s2.89-9.1,6.46-9.1c1.15,0,2.21.4,3.14,1.16.49.4,1,.62,1.57.63,2.28.04,4.2-3.37,4.28-7.62,0-.3,0-.52,0-.81-.26-6.04-.86-11.83-1.76-17.27Z"/><path class="d" d="m66.47,66.53c5.44-.89,11.23-1.44,17.27-1.7.29-.01.51-.01.81,0,4.25.08,7.66,2,7.61,4.28-.01.57-.23,1.08-.63,1.57-.75.92-1.16,1.99-1.16,3.14,0,3.57,4.07,6.46,9.1,6.46s9.1-2.89,9.1-6.46c0-1.15-.4-2.21-1.16-3.14-.4-.49-.62-1-.63-1.57-.05-2.28,3.37-4.2,7.62-4.28.3,0,.6,0,.89.01,6,.26,11.76.84,17.2,1.69-.89,5.44-1.44,11.23-1.71,17.27-.01.29-.01.51,0,.81.08,4.25,1.99,7.66,4.28,7.62.57-.01,1.08-.23,1.57-.63.92-.75,1.99-1.16,3.14-1.16,3.57,0,6.47,4.07,6.47,9.1s-2.9,9.1-6.47,9.1c-1.15,0-2.21-.4-3.14-1.16-.49-.4-1-.62-1.57-.63-2.28-.04-4.2,3.37-4.28,7.62,0,.3,0,.6.01.89.26,6,.84,11.76,1.7,17.2-5.43.85-11.19,1.43-17.19,1.69-.29.01-.59.02-.89,0-4.25-.08-7.66-1.99-7.62-4.28.01-.57.23-1.08.63-1.57.75-.92,1.16-1.99,1.16-3.14,0-3.57-4.07-6.46-9.1-6.46s-9.1,2.9-9.1,6.46c0,1.15.4,2.21,1.16,3.14.4.49.62,1,.63,1.57.04,2.28-3.36,4.2-7.61,4.28-.3,0-.52,0-.81,0-6.04-.26-11.83-.8-17.27-1.7.85-5.43,1.49-11.19,1.75-17.2.01-.29.02-.59.01-.89-.08-4.25-1.99-7.66-4.28-7.62-.57.01-1.08.23-1.57.63-.92.75-1.99,1.16-3.14,1.16-3.57,0-6.46-4.07-6.46-9.1s2.89-9.1,6.46-9.1c1.15,0,2.21.4,3.14,1.16.49.4,1,.62,1.57.63,2.28.04,4.2-3.37,4.28-7.62,0-.3,0-.52,0-.81-.26-6.04-.86-11.83-1.76-17.27Z"/><path class="d" d="m132.49,264.64c-.89-5.44-1.44-11.23-1.7-17.27-.01-.29-.01-.51,0-.81.08-4.25,1.99-7.66,4.28-7.62.57.01,1.08.23,1.57.63.92.75,1.99,1.16,3.14,1.16,3.57,0,6.47-4.07,6.47-9.1s-2.9-9.1-6.47-9.1c-1.15,0-2.21.4-3.14,1.16-.49.4-1,.62-1.57.63-2.28.04-4.2-3.37-4.28-7.62,0-.3,0-.6,0-.89.26-6,.84-11.76,1.69-17.2,5.44.89,11.23,1.44,17.27,1.71.29.01.51.01.82,0,4.25-.08,7.66-1.99,7.61-4.28-.01-.57-.23-1.08-.63-1.57-.75-.92-1.16-1.99-1.16-3.14,0-3.57,4.07-6.46,9.1-6.46s9.1,2.9,9.1,6.46c0,1.15-.4,2.21-1.16,3.14-.4.49-.62,1-.63,1.57-.04,2.28,3.36,4.2,7.62,4.28.3,0,.59,0,.89-.01,6.01-.26,11.76-.84,17.2-1.69.85,5.43,1.43,11.19,1.69,17.19.01.29.02.59,0,.89-.08,4.25-1.99,7.66-4.28,7.62-.57-.01-1.09-.23-1.57-.63-.92-.75-1.99-1.16-3.14-1.16-3.57,0-6.47,4.07-6.47,9.1s2.9,9.1,6.47,9.1c1.15,0,2.21-.4,3.14-1.16.49-.4,1-.62,1.57-.63,2.28-.04,4.2,3.37,4.28,7.62,0,.3,0,.52,0,.81-.26,6.04-.8,11.83-1.7,17.27-5.43-.85-11.2-1.49-17.2-1.75-.29-.01-.59-.02-.89-.01-4.25.08-7.66,1.99-7.62,4.28.01.57.23,1.08.63,1.57.75.92,1.16,1.99,1.16,3.14,0,3.57-4.07,6.46-9.1,6.46s-9.1-2.89-9.1-6.46c0-1.15.4-2.21,1.16-3.14.4-.49.62-1,.63-1.57.05-2.28-3.36-4.2-7.61-4.28-.3,0-.52,0-.82,0-6.04.26-11.82.87-17.27,1.76Z"/><path class="d" d="m198.51,198.62c5.44-.89,11.23-1.44,17.27-1.7.29-.01.51-.01.81,0,4.25.08,7.66,2,7.61,4.28-.01.57-.23,1.08-.63,1.57-.75.92-1.16,1.99-1.16,3.14,0,3.57,4.07,6.46,9.1,6.46s9.1-2.89,9.1-6.46c0-1.15-.4-2.21-1.16-3.14-.4-.49-.62-1-.63-1.57-.05-2.28,3.37-4.2,7.62-4.28.3,0,.6,0,.89.01,6,.26,11.76.84,17.2,1.69-.89,5.44-1.44,11.23-1.71,17.27-.01.29-.01.51,0,.81.08,4.25,1.99,7.66,4.28,7.62.57-.01,1.08-.23,1.57-.63.92-.75,1.99-1.16,3.14-1.16,3.57,0,6.47,4.07,6.47,9.1s-2.9,9.1-6.47,9.1c-1.15,0-2.21-.4-3.14-1.16-.49-.4-1-.62-1.57-.63-2.28-.04-4.2,3.37-4.28,7.62,0,.3,0,.6.01.89.26,6,.84,11.76,1.7,17.2-5.43.85-11.19,1.43-17.19,1.69-.29.01-.59.02-.89,0-4.25-.08-7.66-1.99-7.62-4.28.01-.57.23-1.08.63-1.57.75-.92,1.16-1.99,1.16-3.14,0-3.57-4.07-6.46-9.1-6.46s-9.1,2.9-9.1,6.46c0,1.15.4,2.21,1.16,3.14.4.49.62,1,.63,1.57.04,2.28-3.36,4.2-7.61,4.28-.3,0-.52,0-.81,0-6.04-.26-11.83-.8-17.27-1.7.85-5.43,1.49-11.19,1.75-17.2.01-.29.02-.59.01-.89-.08-4.25-1.99-7.66-4.28-7.62-.57.01-1.08.23-1.57.63-.92.75-1.99,1.16-3.14,1.16-3.57,0-6.46-4.07-6.46-9.1s2.89-9.1,6.46-9.1c1.15,0,2.21.4,3.14,1.16.49.4,1,.62,1.57.63,2.28.05,4.2-3.37,4.28-7.62,0-.3,0-.52,0-.81-.26-6.04-.86-11.83-1.76-17.27Z"/><path class="d" d="m66.47,198.62c5.44-.89,11.23-1.44,17.27-1.7.29-.01.51-.01.81,0,4.25.08,7.66,2,7.61,4.28-.01.57-.23,1.08-.63,1.57-.75.92-1.16,1.99-1.16,3.14,0,3.57,4.07,6.46,9.1,6.46s9.1-2.89,9.1-6.46c0-1.15-.4-2.21-1.16-3.14-.4-.49-.62-1-.63-1.57-.05-2.28,3.37-4.2,7.62-4.28.3,0,.6,0,.89.01,6,.26,11.76.84,17.2,1.69-.89,5.44-1.44,11.23-1.71,17.27-.01.29-.01.51,0,.81.08,4.25,1.99,7.66,4.28,7.62.57-.01,1.08-.23,1.57-.63.92-.75,1.99-1.16,3.14-1.16,3.57,0,6.47,4.07,6.47,9.1s-2.9,9.1-6.47,9.1c-1.15,0-2.21-.4-3.14-1.16-.49-.4-1-.62-1.57-.63-2.28-.04-4.2,3.37-4.28,7.62,0,.3,0,.6.01.89.26,6,.84,11.76,1.7,17.2-5.43.85-11.19,1.43-17.19,1.69-.29.01-.59.02-.89,0-4.25-.08-7.66-1.99-7.62-4.28.01-.57.23-1.08.63-1.57.75-.92,1.16-1.99,1.16-3.14,0-3.57-4.07-6.46-9.1-6.46s-9.1,2.9-9.1,6.46c0,1.15.4,2.21,1.16,3.14.4.49.62,1,.63,1.57.04,2.28-3.36,4.2-7.61,4.28-.3,0-.52,0-.81,0-6.04-.26-11.83-.8-17.27-1.7.85-5.43,1.49-11.19,1.75-17.2.01-.29.02-.59.01-.89-.08-4.25-1.99-7.66-4.28-7.62-.57.01-1.08.23-1.57.63-.92.75-1.99,1.16-3.14,1.16-3.57,0-6.46-4.07-6.46-9.1s2.89-9.1,6.46-9.1c1.15,0,2.21.4,3.14,1.16.49.4,1,.62,1.57.63,2.28.05,4.2-3.37,4.28-7.62,0-.3,0-.52,0-.81-.26-6.04-.86-11.83-1.76-17.27Z"/><path class="d" d="m198.51,198.62c-.89-5.44-1.44-11.23-1.7-17.27-.01-.29-.01-.51,0-.81.08-4.25,1.99-7.66,4.28-7.62.57.01,1.08.23,1.57.63.92.75,1.99,1.16,3.14,1.16,3.57,0,6.47-4.07,6.47-9.1s-2.9-9.1-6.47-9.1c-1.15,0-2.21.4-3.14,1.16-.49.4-1,.62-1.57.63-2.28.05-4.2-3.37-4.28-7.62,0-.3,0-.6,0-.89.26-6,.84-11.76,1.69-17.2,5.44.89,11.23,1.44,17.27,1.71.29.01.52.01.82,0,4.25-.08,7.66-1.99,7.61-4.28-.01-.57-.23-1.08-.63-1.57-.75-.92-1.16-1.99-1.16-3.14,0-3.57,4.07-6.46,9.1-6.46s9.1,2.9,9.1,6.46c0,1.15-.4,2.21-1.16,3.14-.4.49-.62,1-.63,1.57-.05,2.28,3.36,4.2,7.62,4.28.3,0,.59,0,.89-.01,6.01-.26,11.76-.84,17.2-1.69.85,5.43,1.43,11.19,1.69,17.19.01.29.02.59,0,.89-.08,4.25-1.99,7.66-4.28,7.62-.57-.01-1.09-.23-1.57-.63-.92-.75-1.99-1.16-3.14-1.16-3.57,0-6.47,4.07-6.47,9.1s2.9,9.1,6.47,9.1c1.15,0,2.21-.4,3.14-1.16.49-.4,1-.62,1.57-.63,2.28-.04,4.2,3.37,4.28,7.62,0,.3,0,.52,0,.81-.26,6.04-.8,11.83-1.7,17.27-5.43-.85-11.2-1.49-17.2-1.75-.29-.01-.59-.02-.89-.01-4.25.08-7.66,1.99-7.62,4.28.01.57.23,1.08.63,1.57.75.92,1.16,1.99,1.16,3.14,0,3.57-4.07,6.46-9.1,6.46s-9.1-2.89-9.1-6.46c0-1.15.4-2.21,1.16-3.14.4-.49.62-1,.63-1.57.05-2.28-3.36-4.2-7.61-4.28-.3,0-.52,0-.82,0-6.04.26-11.82.87-17.27,1.76Z"/><path class="d" d="m66.53,198.62c-.89-5.44-1.44-11.23-1.7-17.27-.01-.29-.01-.51,0-.81.08-4.25,1.99-7.66,4.28-7.62.57.01,1.08.23,1.57.63.92.75,1.99,1.16,3.14,1.16,3.57,0,6.47-4.07,6.47-9.1s-2.9-9.1-6.47-9.1c-1.15,0-2.21.4-3.14,1.16-.49.4-1,.62-1.57.63-2.28.05-4.2-3.37-4.28-7.62,0-.3,0-.6,0-.89.26-6,.84-11.76,1.69-17.2,5.44.89,11.23,1.44,17.27,1.71.29.01.52.01.82,0,4.25-.08,7.66-1.99,7.61-4.28-.01-.57-.23-1.08-.63-1.57-.75-.92-1.16-1.99-1.16-3.14,0-3.57,4.07-6.46,9.1-6.46s9.1,2.9,9.1,6.46c0,1.15-.4,2.21-1.16,3.14-.4.49-.62,1-.63,1.57-.05,2.28,3.36,4.2,7.62,4.28.3,0,.59,0,.89-.01,6.01-.26,11.76-.84,17.2-1.69.85,5.43,1.43,11.19,1.69,17.19.01.29.02.59,0,.89-.08,4.25-1.99,7.66-4.28,7.62-.57-.01-1.09-.23-1.57-.63-.92-.75-1.99-1.16-3.14-1.16-3.57,0-6.47,4.07-6.47,9.1s2.9,9.1,6.47,9.1c1.15,0,2.21-.4,3.14-1.16.49-.4,1-.62,1.57-.63,2.28-.04,4.2,3.37,4.28,7.62,0,.3,0,.52,0,.81-.26,6.04-.8,11.83-1.7,17.27-5.43-.85-11.2-1.49-17.2-1.75-.29-.01-.59-.02-.89-.01-4.25.08-7.66,1.99-7.62,4.28.01.57.23,1.08.63,1.57.75.92,1.16,1.99,1.16,3.14,0,3.57-4.07,6.46-9.1,6.46s-9.1-2.89-9.1-6.46c0-1.15.4-2.21,1.16-3.14.4-.49.62-1,.63-1.57.05-2.28-3.36-4.2-7.61-4.28-.3,0-.52,0-.82,0-6.04.26-11.82.87-17.27,1.76Z"/><path class="d" d="m132.49,132.61c5.44-.89,11.23-1.44,17.27-1.7.29-.01.51-.01.81,0,4.25.08,7.66,2,7.61,4.28-.01.57-.23,1.08-.63,1.57-.75.92-1.16,1.99-1.16,3.14,0,3.57,4.07,6.46,9.1,6.46s9.1-2.89,9.1-6.46c0-1.15-.4-2.21-1.16-3.14-.4-.49-.62-1-.63-1.57-.04-2.28,3.37-4.2,7.62-4.28.3,0,.6,0,.89.01,6,.26,11.76.84,17.2,1.69-.89,5.44-1.44,11.23-1.71,17.27-.01.29-.01.51,0,.81.08,4.25,1.99,7.66,4.28,7.62.57-.01,1.08-.23,1.57-.63.92-.75,1.99-1.16,3.14-1.16,3.57,0,6.47,4.07,6.47,9.1s-2.9,9.1-6.47,9.1c-1.15,0-2.21-.4-3.14-1.16-.49-.4-1-.62-1.57-.63-2.28-.04-4.2,3.37-4.28,7.62,0,.3,0,.6.01.89.26,6,.84,11.76,1.7,17.2-5.43.85-11.19,1.43-17.19,1.69-.29.01-.59.02-.89,0-4.25-.08-7.66-1.99-7.62-4.28.01-.57.23-1.08.63-1.57.75-.92,1.16-1.99,1.16-3.14,0-3.57-4.07-6.46-9.1-6.46s-9.1,2.9-9.1,6.46c0,1.15.4,2.21,1.16,3.14.4.49.62,1,.63,1.57.04,2.28-3.36,4.2-7.61,4.28-.3,0-.52,0-.81,0-6.04-.26-11.83-.8-17.27-1.7.85-5.43,1.49-11.19,1.75-17.2.01-.29.02-.59.01-.89-.08-4.25-1.99-7.66-4.28-7.62-.57.01-1.08.23-1.57.63-.92.75-1.99,1.16-3.14,1.16-3.57,0-6.46-4.07-6.46-9.1s2.89-9.1,6.46-9.1c1.15,0,2.21.4,3.14,1.16.49.4,1,.62,1.57.63,2.28.04,4.2-3.37,4.28-7.62,0-.3,0-.52,0-.81-.26-6.04-.86-11.83-1.76-17.27Z"/><path class="d" d="m132.56,330.74c-5.44-.89-11.23-1.44-17.27-1.7-.29-.01-.51-.01-.81,0-4.25.08-7.66,2-7.62,4.28.01.57.23,1.08.63,1.57.75.92,1.16,1.99,1.16,3.14,0,3.57-4.07,6.46-9.1,6.46s-9.1-2.89-9.1-6.46c0-1.15.4-2.21,1.16-3.14.4-.49.62-1,.63-1.57.04-2.28-3.36-4.2-7.62-4.28-.3,0-.6,0-.89.01-6,.26-11.76.84-17.19,1.69.89,5.44,1.44,11.23,1.71,17.27.01.29.01.51,0,.81-.08,4.25-1.99,7.66-4.28,7.62-.57-.01-1.09-.23-1.57-.63-.92-.75-1.99-1.16-3.14-1.16-3.57,0-6.47,4.07-6.47,9.1s2.9,9.1,6.47,9.1c1.15,0,2.21-.4,3.14-1.16.49-.4,1-.62,1.57-.63,2.28-.04,4.2,3.37,4.28,7.62,0,.3,0,.6-.01.89-.26,6-.84,11.76-1.7,17.2,5.43.85,11.19,1.43,17.19,1.69.29.01.59.02.89,0,4.25-.08,7.66-1.99,7.62-4.28-.01-.57-.23-1.08-.63-1.57-.75-.92-1.16-1.99-1.16-3.14,0-3.57,4.07-6.46,9.1-6.46s9.1,2.9,9.1,6.46c0,1.15-.4,2.21-1.16,3.14-.4.49-.62,1-.63,1.57-.04,2.28,3.36,4.2,7.62,4.28.3,0,.52,0,.81,0,6.04-.26,11.83-.8,17.27-1.7-.85-5.43-1.49-11.19-1.75-17.2-.01-.29-.02-.59-.01-.89.08-4.25,1.99-7.66,4.28-7.62.57.01,1.09.23,1.57.63.92.75,1.99,1.16,3.14,1.16,3.57,0,6.47-4.07,6.47-9.1s-2.89-9.1-6.47-9.1c-1.15,0-2.21.4-3.14,1.16-.49.4-1,.62-1.57.63-2.28.05-4.2-3.37-4.28-7.62,0-.3,0-.52,0-.81.26-6.04.86-11.83,1.76-17.27Z"/><path class="d" d="m.51,132.61c5.44-.89,11.23-1.44,17.27-1.7.29-.01.51-.01.81,0,4.25.08,7.66,1.99,7.62,4.28-.01.57-.23,1.08-.63,1.57-.75.92-1.16,1.99-1.16,3.14,0,3.57,4.07,6.47,9.1,6.47s9.1-2.89,9.1-6.47c0-1.15-.4-2.21-1.16-3.14-.4-.49-.62-1-.63-1.57-.04-2.28,3.36-4.2,7.62-4.28.3,0,.6,0,.89.01,6,.26,11.76.84,17.19,1.69-.85,5.44-1.43,11.19-1.69,17.2-.01.29-.02.59-.01.89.08,4.25,1.99,7.66,4.28,7.62.57-.01,1.08-.23,1.57-.63.92-.75,1.99-1.16,3.14-1.16,3.57,0,6.47,4.07,6.47,9.1s-2.9,9.1-6.47,9.1c-1.15,0-2.21-.4-3.14-1.16-.49-.4-1-.62-1.57-.63-2.28-.04-4.2,3.36-4.28,7.62,0,.3,0,.52,0,.81.26,6.04.81,11.83,1.71,17.27-5.43.85-11.19,1.43-17.2,1.69-.29.01-.59.02-.89.01-4.25-.08-7.66-1.99-7.62-4.28.01-.57.23-1.08.63-1.57.75-.92,1.16-1.99,1.16-3.14,0-3.57-4.07-6.47-9.1-6.47s-9.1,2.89-9.1,6.47c0,1.15.4,2.21,1.16,3.14.4.49.62,1,.63,1.57.04,2.28-3.36,4.2-7.62,4.28-.3,0-.52,0-.81,0-6.04-.26-11.83-.8-17.27-1.7v-66.02Z"/><path class="d" d="m132.49,396.75c-.89-5.44-1.44-11.23-1.7-17.27-.01-.29-.01-.51,0-.81.08-4.25,1.99-7.66,4.28-7.62.57.01,1.08.23,1.57.63.92.75,1.99,1.16,3.14,1.16,3.57,0,6.47-4.07,6.47-9.1s-2.9-9.1-6.47-9.1c-1.15,0-2.21.4-3.14,1.16-.49.4-1,.62-1.57.63-2.28.05-4.2-3.37-4.28-7.62,0-.3,0-.6,0-.89.26-6,.84-11.76,1.69-17.2,5.44.89,11.23,1.44,17.27,1.71.29.01.51.01.82,0,4.25-.08,7.66-1.99,7.61-4.28-.01-.57-.23-1.08-.63-1.57-.75-.92-1.16-1.99-1.16-3.14,0-3.57,4.07-6.46,9.1-6.46s9.1,2.9,9.1,6.46c0,1.15-.4,2.21-1.16,3.14-.4.49-.62,1-.63,1.57-.04,2.28,3.36,4.2,7.62,4.28.3,0,.59,0,.89-.01,6.01-.26,11.76-.84,17.2-1.69.85,5.43,1.43,11.19,1.69,17.19.01.29.02.59,0,.89-.08,4.25-1.99,7.66-4.28,7.62-.57-.01-1.09-.23-1.57-.63-.92-.75-1.99-1.16-3.14-1.16-3.57,0-6.47,4.07-6.47,9.1s2.9,9.1,6.47,9.1c1.15,0,2.21-.4,3.14-1.16.49-.4,1-.62,1.57-.63,2.28-.04,4.2,3.37,4.28,7.62,0,.3,0,.52,0,.81-.26,6.04-.8,11.83-1.7,17.27-5.43-.85-11.2-1.49-17.2-1.75-.29-.01-.59-.02-.89-.01-4.25.08-7.66,1.99-7.62,4.28.01.57.23,1.08.63,1.57.75.92,1.16,1.99,1.16,3.14,0,3.57-4.07,6.46-9.1,6.46s-9.1-2.89-9.1-6.46c0-1.15.4-2.21,1.16-3.14.4-.49.62-1,.63-1.57.05-2.28-3.36-4.2-7.61-4.28-.3,0-.52,0-.82,0-6.04.26-11.82.87-17.27,1.76Z"/><path class="d" d="m198.51,330.73c5.44-.89,11.23-1.44,17.27-1.7.29-.01.51-.01.81,0,4.25.08,7.66,2,7.61,4.28-.01.57-.23,1.08-.63,1.57-.75.92-1.16,1.99-1.16,3.14,0,3.57,4.07,6.46,9.1,6.46s9.1-2.89,9.1-6.46c0-1.15-.4-2.21-1.16-3.14-.4-.49-.62-1-.63-1.57-.05-2.28,3.37-4.2,7.62-4.28.3,0,.6,0,.89.01,6,.26,11.76.84,17.2,1.69-.89,5.44-1.44,11.23-1.71,17.27-.01.29-.01.51,0,.81.08,4.25,1.99,7.66,4.28,7.62.57-.01,1.08-.23,1.57-.63.92-.75,1.99-1.16,3.14-1.16,3.57,0,6.47,4.07,6.47,9.1s-2.9,9.1-6.47,9.1c-1.15,0-2.21-.4-3.14-1.16-.49-.4-1-.62-1.57-.63-2.28-.04-4.2,3.37-4.28,7.62,0,.3,0,.6.01.89.26,6,.84,11.76,1.7,17.2-5.43.85-11.19,1.43-17.19,1.69-.29.01-.59.02-.89,0-4.25-.08-7.66-1.99-7.62-4.28.01-.57.23-1.08.63-1.57.75-.92,1.16-1.99,1.16-3.14,0-3.57-4.07-6.46-9.1-6.46s-9.1,2.9-9.1,6.46c0,1.15.4,2.21,1.16,3.14.4.49.62,1,.63,1.57.04,2.28-3.36,4.2-7.61,4.28-.3,0-.52,0-.81,0-6.04-.26-11.83-.8-17.27-1.7.85-5.43,1.49-11.19,1.75-17.2.01-.29.02-.59.01-.89-.08-4.25-1.99-7.66-4.28-7.62-.57.01-1.08.23-1.57.63-.92.75-1.99,1.16-3.14,1.16-3.57,0-6.46-4.07-6.46-9.1s2.89-9.1,6.46-9.1c1.15,0,2.21.4,3.14,1.16.49.4,1,.62,1.57.63,2.28.04,4.2-3.37,4.28-7.62,0-.3,0-.52,0-.81-.26-6.04-.86-11.83-1.76-17.27Z"/><path class="d" d="m198.51,330.73c-.89-5.44-1.44-11.23-1.7-17.27-.01-.29-.01-.51,0-.81.08-4.25,1.99-7.66,4.28-7.62.57.01,1.08.23,1.57.63.92.75,1.99,1.16,3.14,1.16,3.57,0,6.47-4.07,6.47-9.1s-2.9-9.1-6.47-9.1c-1.15,0-2.21.4-3.14,1.16-.49.4-1,.62-1.57.63-2.28.05-4.2-3.37-4.28-7.62,0-.3,0-.6,0-.89.26-6,.84-11.76,1.69-17.2,5.44.89,11.23,1.44,17.27,1.71.29.01.52.01.82,0,4.25-.08,7.66-1.99,7.61-4.28-.01-.57-.23-1.08-.63-1.57-.75-.92-1.16-1.99-1.16-3.14,0-3.57,4.07-6.46,9.1-6.46s9.1,2.9,9.1,6.46c0,1.15-.4,2.21-1.16,3.14-.4.49-.62,1-.63,1.57-.05,2.28,3.36,4.2,7.62,4.28.3,0,.59,0,.89-.01,6.01-.26,11.76-.84,17.2-1.69.85,5.43,1.43,11.19,1.69,17.19.01.29.02.59,0,.89-.08,4.25-1.99,7.66-4.28,7.62-.57-.01-1.09-.23-1.57-.63-.92-.75-1.99-1.16-3.14-1.16-3.57,0-6.47,4.07-6.47,9.1s2.9,9.1,6.47,9.1c1.15,0,2.21-.4,3.14-1.16.49-.4,1-.62,1.57-.63,2.28-.04,4.2,3.37,4.28,7.62,0,.3,0,.52,0,.81-.26,6.04-.8,11.83-1.7,17.27-5.43-.85-11.2-1.49-17.2-1.75-.29-.01-.59-.02-.89-.01-4.25.08-7.66,1.99-7.62,4.28.01.57.23,1.08.63,1.57.75.92,1.16,1.99,1.16,3.14,0,3.57-4.07,6.46-9.1,6.46s-9.1-2.89-9.1-6.46c0-1.15.4-2.21,1.16-3.14.4-.49.62-1,.63-1.57.05-2.28-3.36-4.2-7.61-4.28-.3,0-.52,0-.82,0-6.04.26-11.82.87-17.27,1.76Z"/><path class="d" d="m66.53,330.73c-.89-5.44-1.44-11.23-1.7-17.27-.01-.29-.01-.51,0-.81.08-4.25,1.99-7.66,4.28-7.62.57.01,1.08.23,1.57.63.92.75,1.99,1.16,3.14,1.16,3.57,0,6.47-4.07,6.47-9.1s-2.9-9.1-6.47-9.1c-1.15,0-2.21.4-3.14,1.16-.49.4-1,.62-1.57.63-2.28.05-4.2-3.37-4.28-7.62,0-.3,0-.6,0-.89.26-6,.84-11.76,1.69-17.2,5.44.89,11.23,1.44,17.27,1.71.29.01.52.01.82,0,4.25-.08,7.66-1.99,7.61-4.28-.01-.57-.23-1.08-.63-1.57-.75-.92-1.16-1.99-1.16-3.14,0-3.57,4.07-6.46,9.1-6.46s9.1,2.9,9.1,6.46c0,1.15-.4,2.21-1.16,3.14-.4.49-.62,1-.63,1.57-.05,2.28,3.36,4.2,7.62,4.28.3,0,.59,0,.89-.01,6.01-.26,11.76-.84,17.2-1.69.85,5.43,1.43,11.19,1.69,17.19.01.29.02.59,0,.89-.08,4.25-1.99,7.66-4.28,7.62-.57-.01-1.09-.23-1.57-.63-.92-.75-1.99-1.16-3.14-1.16-3.57,0-6.47,4.07-6.47,9.1s2.9,9.1,6.47,9.1c1.15,0,2.21-.4,3.14-1.16.49-.4,1-.62,1.57-.63,2.28-.04,4.2,3.37,4.28,7.62,0,.3,0,.52,0,.81-.26,6.04-.8,11.83-1.7,17.27-5.43-.85-11.2-1.49-17.2-1.75-.29-.01-.59-.02-.89-.01-4.25.08-7.66,1.99-7.62,4.28.01.57.23,1.08.63,1.57.75.92,1.16,1.99,1.16,3.14,0,3.57-4.07,6.46-9.1,6.46s-9.1-2.89-9.1-6.46c0-1.15.4-2.21,1.16-3.14.4-.49.62-1,.63-1.57.05-2.28-3.36-4.2-7.61-4.28-.3,0-.52,0-.82,0-6.04.26-11.82.87-17.27,1.76Z"/><path class="d" d="m132.49,264.72c5.44-.89,11.23-1.44,17.27-1.7.29-.01.51-.01.81,0,4.25.08,7.66,2,7.61,4.28-.01.57-.23,1.08-.63,1.57-.75.92-1.16,1.99-1.16,3.14,0,3.57,4.07,6.46,9.1,6.46s9.1-2.89,9.1-6.46c0-1.15-.4-2.21-1.16-3.14-.4-.49-.62-1-.63-1.57-.04-2.28,3.37-4.2,7.62-4.28.3,0,.6,0,.89.01,6,.26,11.76.84,17.2,1.69-.89,5.44-1.44,11.23-1.71,17.27-.01.29-.01.51,0,.81.08,4.25,1.99,7.66,4.28,7.62.57-.01,1.08-.23,1.57-.63.92-.75,1.99-1.16,3.14-1.16,3.57,0,6.47,4.07,6.47,9.1s-2.9,9.1-6.47,9.1c-1.15,0-2.21-.4-3.14-1.16-.49-.4-1-.62-1.57-.63-2.28-.04-4.2,3.37-4.28,7.62,0,.3,0,.6.01.89.26,6,.84,11.76,1.7,17.2-5.43.85-11.19,1.43-17.19,1.69-.29.01-.59.02-.89,0-4.25-.08-7.66-1.99-7.62-4.28.01-.57.23-1.08.63-1.57.75-.92,1.16-1.99,1.16-3.14,0-3.57-4.07-6.46-9.1-6.46s-9.1,2.9-9.1,6.46c0,1.15.4,2.21,1.16,3.14.4.49.62,1,.63,1.57.04,2.28-3.36,4.2-7.61,4.28-.3,0-.52,0-.81,0-6.04-.26-11.83-.8-17.27-1.7.85-5.43,1.49-11.19,1.75-17.2.01-.29.02-.59.01-.89-.08-4.25-1.99-7.66-4.28-7.62-.57.01-1.08.23-1.57.63-.92.75-1.99,1.16-3.14,1.16-3.57,0-6.46-4.07-6.46-9.1s2.89-9.1,6.46-9.1c1.15,0,2.21.4,3.14,1.16.49.4,1,.62,1.57.63,2.28.04,4.2-3.37,4.28-7.62,0-.3,0-.52,0-.81-.26-6.04-.86-11.83-1.76-17.27Z"/><path class="d" d="m.51,264.72c5.44-.89,11.23-1.44,17.27-1.7.29-.01.51-.01.81,0,4.25.08,7.66,1.99,7.62,4.28-.01.57-.23,1.08-.63,1.57-.75.92-1.16,1.99-1.16,3.14,0,3.57,4.07,6.47,9.1,6.47s9.1-2.89,9.1-6.47c0-1.15-.4-2.21-1.16-3.14-.4-.49-.62-1-.63-1.57-.04-2.28,3.36-4.2,7.62-4.28.3,0,.6,0,.89.01,6,.26,11.76.84,17.19,1.69-.85,5.44-1.43,11.19-1.69,17.2-.01.29-.02.59-.01.89.08,4.25,1.99,7.66,4.28,7.62.57-.01,1.08-.23,1.57-.63.92-.75,1.99-1.16,3.14-1.16,3.57,0,6.47,4.07,6.47,9.1s-2.9,9.1-6.47,9.1c-1.15,0-2.21-.4-3.14-1.16-.49-.4-1-.62-1.57-.63-2.28-.04-4.2,3.36-4.28,7.62,0,.3,0,.52,0,.81.26,6.04.81,11.83,1.71,17.27-5.43.85-11.19,1.43-17.2,1.69-.29.01-.59.02-.89.01-4.25-.08-7.66-1.99-7.62-4.28.01-.57.23-1.08.63-1.57.75-.92,1.16-1.99,1.16-3.14,0-3.57-4.07-6.47-9.1-6.47s-9.1,2.89-9.1,6.47c0,1.15.4,2.21,1.16,3.14.4.49.62,1,.63,1.57.04,2.28-3.36,4.2-7.62,4.28-.3,0-.52,0-.81,0-6.04-.26-11.83-.8-17.27-1.7v-66.02Z"/><path class="d" d="m264.53,462.77c.89-5.44,1.44-11.23,1.7-17.27.01-.29.01-.51,0-.81-.08-4.25-1.99-7.66-4.28-7.62-.57.01-1.08.23-1.57.63-.92.75-1.99,1.16-3.14,1.16-3.57,0-6.47-4.07-6.47-9.1s2.89-9.1,6.47-9.1c1.15,0,2.21.4,3.14,1.16.49.4,1,.62,1.57.63,2.28.04,4.2-3.37,4.28-7.62,0-.3,0-.6-.01-.89-.26-6-.84-11.75-1.69-17.19-5.44.85-11.19,1.43-17.2,1.7-.29.01-.59.02-.89,0-4.25-.08-7.66-1.99-7.62-4.28.01-.57.23-1.08.63-1.57.75-.92,1.16-1.99,1.16-3.14,0-3.57-4.07-6.47-9.1-6.47s-9.1,2.9-9.1,6.47c0,1.15.4,2.21,1.16,3.14.4.49.62,1,.63,1.57.04,2.28-3.37,4.2-7.62,4.28-.3,0-.52,0-.81,0-6.04-.26-11.83-.81-17.27-1.7-.85,5.43-1.43,11.19-1.69,17.19-.01.29-.02.59-.01.89.08,4.25,1.99,7.66,4.28,7.62.57-.01,1.09-.23,1.57-.63.92-.75,1.99-1.16,3.14-1.16,3.57,0,6.47,4.07,6.47,9.1s-2.89,9.1-6.47,9.1c-1.15,0-2.21-.4-3.14-1.16-.49-.4-1-.62-1.57-.63-2.28-.05-4.2,3.37-4.28,7.62,0,.3,0,.52,0,.81.26,6.04.8,11.83,1.7,17.27h66.02Z"/><path class="d" d="m132.49,462.77c.89-5.44,1.44-11.23,1.7-17.27.01-.29.01-.51,0-.81-.08-4.25-1.99-7.66-4.28-7.62-.57.01-1.08.23-1.57.63-.92.75-1.99,1.16-3.14,1.16-3.57,0-6.47-4.07-6.47-9.1s2.89-9.1,6.47-9.1c1.15,0,2.21.4,3.14,1.16.49.4,1,.62,1.57.63,2.28.04,4.2-3.37,4.28-7.62,0-.3,0-.6-.01-.89-.26-6-.84-11.75-1.69-17.19-5.44.85-11.19,1.43-17.2,1.7-.29.01-.59.02-.89,0-4.25-.08-7.66-1.99-7.62-4.28.01-.57.23-1.08.63-1.57.75-.92,1.16-1.99,1.16-3.14,0-3.57-4.07-6.47-9.1-6.47s-9.1,2.9-9.1,6.47c0,1.15.4,2.21,1.16,3.14.4.49.62,1,.63,1.57.04,2.28-3.37,4.2-7.62,4.28-.3,0-.52,0-.81,0-6.04-.26-11.83-.81-17.27-1.7-.85,5.43-1.43,11.19-1.69,17.19-.01.29-.02.59-.01.89.08,4.25,1.99,7.66,4.28,7.62.57-.01,1.09-.23,1.57-.63.92-.75,1.99-1.16,3.14-1.16,3.57,0,6.47,4.07,6.47,9.1s-2.89,9.1-6.47,9.1c-1.15,0-2.21-.4-3.14-1.16-.49-.4-1-.62-1.57-.63-2.28-.05-4.2,3.37-4.28,7.62,0,.3,0,.52,0,.81.26,6.04.8,11.83,1.7,17.27h66.02Z"/><path class="d" d="m330.47,198.7c-5.43.85-11.19,1.43-17.2,1.7-.29.01-.59.02-.89.01-4.25-.08-7.66-1.99-7.62-4.28.01-.57.23-1.08.63-1.57.75-.92,1.16-1.99,1.16-3.14,0-3.57-4.07-6.47-9.1-6.47s-9.1,2.9-9.1,6.47c0,1.15.4,2.21,1.16,3.14.4.49.62,1,.63,1.57.05,2.28-3.37,4.2-7.62,4.28-.3,0-.52,0-.82,0-6.04-.26-11.83-.81-17.27-1.71-.85,5.44-1.43,11.19-1.69,17.2-.01.29-.02.59-.01.89.08,4.25,1.99,7.66,4.28,7.62.57-.01,1.08-.23,1.57-.63.92-.75,1.99-1.16,3.14-1.16,3.57,0,6.47,4.07,6.47,9.1s-2.89,9.1-6.47,9.1c-1.15,0-2.21-.4-3.14-1.16-.49-.4-1-.62-1.57-.63-2.28-.04-4.2,3.36-4.28,7.61,0,.3,0,.52,0,.81.26,6.04.8,11.83,1.7,17.27,5.45-.89,11.23-1.5,17.27-1.76.29-.01.51-.01.82,0,4.25.08,7.66,1.99,7.62,4.28-.01.57-.23,1.08-.63,1.57-.75.92-1.16,1.99-1.16,3.14,0,3.57,4.07,6.46,9.1,6.46s9.1-2.89,9.1-6.46c0-1.15-.4-2.21-1.16-3.14-.4-.49-.62-1-.63-1.57-.04-2.28,3.37-4.2,7.62-4.28.3,0,.59,0,.89.01,6,.26,11.76.9,17.2,1.75v-66.01Z"/><path class="d" d="m330.47,330.74c-5.43.85-11.19,1.44-17.2,1.69-.29.01-.59.02-.89.01-4.25-.08-7.66-1.99-7.62-4.28.01-.57.23-1.08.63-1.57.75-.92,1.16-1.99,1.16-3.14,0-3.57-4.07-6.46-9.1-6.46s-9.1,2.9-9.1,6.46c0,1.15.4,2.21,1.16,3.14.4.49.62,1,.63,1.57.05,2.28-3.37,4.2-7.62,4.28-.3,0-.52,0-.82,0-6.04-.26-11.83-.81-17.27-1.71-.85,5.44-1.43,11.19-1.69,17.2-.01.29-.02.59-.01.89.08,4.25,1.99,7.66,4.28,7.62.57-.01,1.08-.23,1.57-.63.92-.75,1.99-1.16,3.14-1.16,3.57,0,6.47,4.07,6.47,9.1s-2.89,9.1-6.47,9.1c-1.15,0-2.21-.4-3.14-1.16-.49-.4-1-.62-1.57-.63-2.28-.04-4.2,3.37-4.28,7.62,0,.3,0,.52,0,.81.26,6.04.8,11.83,1.7,17.27,5.45-.89,11.23-1.5,17.27-1.76.29-.01.51-.01.82,0,4.25.08,7.66,1.99,7.62,4.28-.01.57-.23,1.08-.63,1.57-.75.92-1.16,1.99-1.16,3.14,0,3.57,4.07,6.46,9.1,6.46s9.1-2.89,9.1-6.46c0-1.15-.4-2.21-1.16-3.14-.4-.49-.62-1-.63-1.57-.04-2.28,3.37-4.2,7.62-4.28.3,0,.59,0,.89.01,6,.26,11.76.9,17.2,1.75v-66.01Z"/><path class="d" d="m330.47,132.54c-5.43-.85-11.19-1.43-17.2-1.7-.29-.01-.59-.02-.89-.01-4.25.08-7.66,1.99-7.62,4.28.01.57.23,1.08.63,1.57.75.92,1.16,1.99,1.16,3.14,0,3.57-4.07,6.47-9.1,6.47s-9.1-2.9-9.1-6.47c0-1.15.4-2.21,1.16-3.14.4-.49.62-1,.63-1.57.05-2.28-3.37-4.2-7.62-4.28-.3,0-.52,0-.82,0-6.04.26-11.83.81-17.27,1.71-.85-5.44-1.43-11.19-1.69-17.2-.01-.29-.02-.59-.01-.89.08-4.25,1.99-7.66,4.28-7.62.57.01,1.08.23,1.57.63.92.75,1.99,1.16,3.14,1.16,3.57,0,6.47-4.07,6.47-9.1s-2.89-9.1-6.47-9.1c-1.15,0-2.21.4-3.14,1.16-.49.4-1,.62-1.57.63-2.28.04-4.2-3.36-4.28-7.62,0-.3,0-.52,0-.81.26-6.04.8-11.83,1.7-17.27,5.45.89,11.23,1.5,17.27,1.76.29.01.51.01.82,0,4.25-.08,7.66-1.99,7.62-4.28-.01-.57-.23-1.08-.63-1.57-.75-.92-1.16-1.99-1.16-3.14,0-3.57,4.07-6.47,9.1-6.47s9.1,2.89,9.1,6.47c0,1.15-.4,2.21-1.16,3.14-.4.49-.62,1-.63,1.57-.04,2.28,3.37,4.2,7.62,4.28.3,0,.59,0,.89-.01,6-.26,11.76-.9,17.2-1.75v66.01Z"/><path class="d" d="m330.46,132.61c-5.44-.89-11.23-1.44-17.27-1.7-.29-.01-.51-.01-.82,0-4.25.08-7.66,1.99-7.62,4.28.01.57.23,1.08.63,1.57.75.92,1.16,1.99,1.16,3.14,0,3.57-4.07,6.47-9.1,6.47s-9.1-2.89-9.1-6.47c0-1.15.4-2.21,1.16-3.14.4-.49.62-1,.63-1.57.05-2.28-3.37-4.2-7.62-4.28-.3,0-.6,0-.89.01-6,.26-11.76.84-17.19,1.69.85,5.44,1.43,11.19,1.69,17.2.01.29.02.59.01.89-.08,4.25-1.99,7.66-4.28,7.62-.57-.01-1.08-.23-1.57-.63-.92-.75-1.99-1.16-3.14-1.16-3.57,0-6.47,4.07-6.47,9.1s2.9,9.1,6.47,9.1c1.15,0,2.21-.4,3.14-1.16.49-.4,1-.62,1.57-.63,2.28-.04,4.2,3.36,4.28,7.62,0,.3,0,.52,0,.81-.26,6.04-.81,11.83-1.71,17.27,5.43.85,11.19,1.43,17.2,1.69.29.01.59.02.89.01,4.25-.08,7.66-1.99,7.62-4.28-.01-.57-.23-1.08-.63-1.57-.75-.92-1.16-1.99-1.16-3.14,0-3.57,4.07-6.47,9.1-6.47s9.1,2.89,9.1,6.47c0,1.15-.4,2.21-1.16,3.14-.4.49-.62,1-.63,1.57-.04,2.28,3.37,4.2,7.62,4.28.3,0,.52,0,.82,0,6.04-.26,11.83-.8,17.27-1.7v-66.02Z"/><path class="d" d="m330.46,264.66c-5.44-.89-11.23-1.44-17.27-1.7-.29-.01-.51-.01-.82,0-4.25.08-7.66,1.99-7.62,4.28.01.57.23,1.08.63,1.57.75.92,1.16,1.99,1.16,3.14,0,3.57-4.07,6.47-9.1,6.47s-9.1-2.89-9.1-6.47c0-1.15.4-2.21,1.16-3.14.4-.49.62-1,.63-1.57.05-2.28-3.37-4.2-7.62-4.28-.3,0-.6,0-.89,0-6,.26-11.76.84-17.19,1.69.85,5.43,1.43,11.19,1.69,17.2.01.29.02.59.01.89-.08,4.25-1.99,7.66-4.28,7.62-.57-.01-1.08-.23-1.57-.63-.92-.75-1.99-1.16-3.14-1.16-3.57,0-6.47,4.07-6.47,9.1s2.9,9.1,6.47,9.1c1.15,0,2.21-.4,3.14-1.16.49-.4,1-.62,1.57-.63,2.28-.05,4.2,3.37,4.28,7.62,0,.3,0,.52,0,.81-.26,6.04-.81,11.83-1.71,17.27,5.43.85,11.19,1.43,17.2,1.69.29.01.59.02.89.01,4.25-.08,7.66-1.99,7.62-4.28-.01-.57-.23-1.08-.63-1.57-.75-.92-1.16-1.99-1.16-3.14,0-3.57,4.07-6.47,9.1-6.47s9.1,2.9,9.1,6.47c0,1.15-.4,2.21-1.16,3.14-.4.49-.62,1-.63,1.57-.04,2.28,3.37,4.2,7.62,4.28.3,0,.52,0,.82,0,6.04-.26,11.83-.8,17.27-1.7v-66.02Z"/><path class="d" d="m264.53.51c.89,5.44,1.44,11.23,1.7,17.27.01.29.01.51,0,.81-.08,4.25-1.99,7.66-4.28,7.62-.57-.01-1.08-.23-1.57-.63-.92-.75-1.99-1.16-3.14-1.16-3.57,0-6.47,4.07-6.47,9.1s2.89,9.1,6.47,9.1c1.15,0,2.21-.4,3.14-1.16.49-.4,1-.62,1.57-.63,2.28-.04,4.2,3.36,4.28,7.62,0,.3,0,.6-.01.89-.26,6-.84,11.76-1.69,17.19-5.44-.85-11.19-1.43-17.2-1.7-.29-.01-.59-.02-.89-.01-4.25.08-7.66,1.99-7.62,4.28.01.57.23,1.08.63,1.57.75.92,1.16,1.99,1.16,3.14,0,3.57-4.07,6.47-9.1,6.47s-9.1-2.9-9.1-6.47c0-1.15.4-2.21,1.16-3.14.4-.49.62-1,.63-1.57.04-2.28-3.37-4.2-7.62-4.28-.3,0-.52,0-.81,0-6.04.26-11.83.81-17.27,1.71-.85-5.43-1.43-11.19-1.69-17.19-.01-.29-.02-.59-.01-.89.08-4.25,1.99-7.66,4.28-7.62.57.01,1.09.23,1.57.63.92.75,1.99,1.16,3.14,1.16,3.57,0,6.47-4.07,6.47-9.1s-2.89-9.1-6.47-9.1c-1.15,0-2.21.4-3.14,1.16-.49.4-1,.62-1.57.63-2.28.04-4.2-3.37-4.28-7.62,0-.3,0-.52,0-.81.26-6.04.8-11.83,1.7-17.27h66.02Z"/><path class="d" d="m132.49.51c.89,5.44,1.44,11.23,1.7,17.27.01.29.01.51,0,.81-.08,4.25-1.99,7.66-4.28,7.62-.57-.01-1.08-.23-1.57-.63-.92-.75-1.99-1.16-3.14-1.16-3.57,0-6.47,4.07-6.47,9.1s2.89,9.1,6.47,9.1c1.15,0,2.21-.4,3.14-1.16.49-.4,1-.62,1.57-.63,2.28-.04,4.2,3.36,4.28,7.62,0,.3,0,.6-.01.89-.26,6-.84,11.76-1.69,17.19-5.44-.85-11.19-1.43-17.2-1.7-.29-.01-.59-.02-.89-.01-4.25.08-7.66,1.99-7.62,4.28.01.57.23,1.08.63,1.57.75.92,1.16,1.99,1.16,3.14,0,3.57-4.07,6.47-9.1,6.47s-9.1-2.9-9.1-6.47c0-1.15.4-2.21,1.16-3.14.4-.49.62-1,.63-1.57.04-2.28-3.37-4.2-7.62-4.28-.3,0-.52,0-.81,0-6.04.26-11.83.81-17.27,1.71-.85-5.43-1.43-11.19-1.69-17.19-.01-.29-.02-.59-.01-.89.08-4.25,1.99-7.66,4.28-7.62.57.01,1.09.23,1.57.63.92.75,1.99,1.16,3.14,1.16,3.57,0,6.47-4.07,6.47-9.1s-2.89-9.1-6.47-9.1c-1.15,0-2.21.4-3.14,1.16-.49.4-1,.62-1.57.63-2.28.04-4.2-3.37-4.28-7.62,0-.3,0-.52,0-.81.26-6.04.8-11.83,1.7-17.27h66.02Z"/><path class="d" d="m330.43,462.78h-66.01c.85-5.44,1.49-11.2,1.75-17.2.01-.29.02-.59.01-.89-.08-4.25-1.99-7.66-4.28-7.62-.57.01-1.09.23-1.57.63-.92.75-1.99,1.16-3.14,1.16-3.57,0-6.47-4.07-6.47-9.1s2.89-9.1,6.47-9.1c1.15,0,2.21.4,3.14,1.16.49.4,1,.62,1.57.63,2.28.04,4.2-3.36,4.28-7.62,0-.3,0-.52,0-.82-.26-6.04-.86-11.82-1.76-17.27,5.44-.89,11.23-1.44,17.27-1.7.29-.01.51-.01.81,0,4.25.08,7.66,1.99,7.62,4.28-.01.57-.23,1.08-.63,1.57-.75.92-1.16,1.99-1.16,3.14,0,3.57,4.07,6.47,9.1,6.47s9.1-2.89,9.1-6.47c0-1.15-.4-2.21-1.16-3.14-.4-.49-.62-1-.63-1.57-.04-2.28,3.36-4.2,7.62-4.28.3,0,.6,0,.89.01,6,.26,11.76.84,17.19,1.69v66.02Z"/></g></svg>
