<?xml version="1.0" encoding="UTF-8"?><svg id="a" xmlns="http://www.w3.org/2000/svg" width="267.1" height="213.45" viewBox="0 0 267.1 213.45"><defs><style>.b{fill:#e6e6e6;stroke-width:0px;}</style></defs><path class="b" d="m218.92,213.44c-.92-5.88-1.55-12.1-1.83-18.59-.01-.31-.02-.63-.01-.96.09-4.6,2.53-9.2,5-9.2,1.14,0,1.93.14,2.52.51,1.11.69,1.93,1.28,3.2,1.28,3.49,0,6.29-3.3,6.29-8.73s-2.79-8.73-6.29-8.73c-1.27,0-2.02.55-3.13,1.23-.58.36-1.55.57-2.58.57-2.47,0-4.92-4.61-5.01-9.21,0-.32,0-.57,0-.88.28-6.53.88-12.79,1.84-18.67-5.87-.92-10.65-1.55-17.54-1.83-.33-.01-.67-.02-1.02-.01-4.88.09-7.76,1.57-7.76,3.41,0,.63.45,1.61.96,2.15.97,1.02,1.1,2.91,1.1,4.15,0,3.86-5.67,7.52-11.44,7.52s-11.47-3.66-11.47-7.52c0-1.24.29-3.3,1.26-4.32.51-.54.91-1.04.91-1.67,0-1.78-2.24-3.64-6.84-3.72-.32,0-.57,0-.88,0-6.53.28-12.79.87-18.67,1.84.97,5.89,1.62,12.14,1.9,18.67.01.31.01.56,0,.88-.08,4.59-2.47,8.8-4.9,9.13-.92.13-1.66.19-2.55-.45-1.03-.75-2-1.28-3.27-1.28-3.36,0-6.29,3.3-6.29,8.73s2.93,8.73,6.29,8.73c1.27,0,2.19-.53,3.24-1.26.79-.56,1.84-.54,2.58-.46,2.44.24,4.82,4.54,4.9,9.13,0,.32,0,.64-.01.96-.28,6.49-.97,12.72-1.89,18.59h71.37Z"/><path class="b" d="m0,68.24c5.88.92,12.1,1.55,18.59,1.83.31.01.63.02.96.01,4.6-.09,9.2-2.53,9.2-5,0-1.14-.14-1.93-.51-2.52-.69-1.11-1.28-1.93-1.28-3.2,0-3.49,3.3-6.29,8.73-6.29,5.43,0,8.73,2.79,8.73,6.29,0,1.27-.55,2.02-1.24,3.13-.36.58-.57,1.55-.57,2.58,0,2.47,4.61,4.92,9.21,5.01.32,0,.57,0,.88,0,6.53-.28,12.79-.88,18.67-1.85.92,5.87,1.55,10.65,1.83,17.54.01.33.02.67.01,1.02-.08,4.88-1.57,7.76-3.41,7.76-.63,0-1.61-.45-2.15-.96-1.02-.97-2.91-1.1-4.15-1.1-3.86,0-7.52,5.67-7.52,11.44,0,5.77,3.66,11.47,7.52,11.47,1.24,0,3.3-.29,4.32-1.26.54-.51,1.04-.91,1.67-.91,1.78,0,3.64,2.24,3.72,6.84,0,.32,0,.57,0,.88-.28,6.53-.87,12.79-1.84,18.67-5.89-.97-12.14-1.62-18.67-1.9-.32-.01-.56-.01-.88,0-4.59.09-8.8,2.47-9.13,4.9-.13.92-.19,1.66.45,2.55.75,1.03,1.28,2,1.28,3.27,0,3.36-3.3,6.29-8.73,6.29s-8.73-2.93-8.73-6.29c0-1.27.53-2.19,1.26-3.24.56-.79.54-1.84.46-2.58-.24-2.44-4.54-4.82-9.13-4.9-.32,0-.64,0-.96.01-6.49.28-12.72.97-18.59,1.89v-71.37Z"/><path class="b" d="m0,213.45h71.37c-.92-5.88-1.61-12.1-1.89-18.59-.01-.31-.02-.63-.01-.96.09-4.6,2.46-8.89,4.9-9.13.73-.07,1.78-.1,2.58.46,1.04.73,1.97,1.26,3.24,1.26,3.36,0,6.29-3.3,6.29-8.73s-2.93-8.73-6.29-8.73c-1.27,0-2.23.53-3.27,1.28-.88.64-1.63.57-2.55.45-2.43-.33-4.82-4.54-4.9-9.13,0-.32,0-.57,0-.88.28-6.53.93-12.78,1.9-18.67-5.89-.97-12.14-1.55-18.67-1.84-.31-.01-.56-.01-.88,0-4.6.08-6.84,1.94-6.84,3.72,0,.63.4,1.13.91,1.67.97,1.02,1.26,3.08,1.26,4.32,0,3.86-5.71,7.52-11.47,7.52-5.77,0-11.44-3.66-11.44-7.52,0-1.24.13-3.13,1.1-4.15.51-.54.96-1.52.96-2.15,0-1.84-2.88-3.33-7.76-3.41-.34,0-.68,0-1.02.01-6.89.28-11.66.91-17.54,1.83v71.38Z"/><path class="b" d="m203.5,0c-3.53,4.81-6.9,10.11-10.11,15.8-.15.27-.26.49-.4.78-2.01,4.13-1.37,6.97.21,7.78.56.29,1.19.16,1.9-.05,1.35-.4,3.32.27,4.42.84,3.44,1.75,4.11,8.5,1.49,13.64-2.62,5.14-8.45,8.53-11.89,6.78-1.11-.56-2.73-1.54-3.2-2.86-.25-.7-.92-1.55-1.48-1.84-1.64-.83-4.27,1.06-6.56,5.36-.16.3-.31.61-.45.91-2.88,6.27-4.49,10.81-6.33,16.46,5.68,1.81,11.53,4.12,17.47,6.83.29.13.5.24.79.4,4.06,2.16,7.05,6.44,5.93,8.64-.46.91-1.09,1.68-1.68,2.04-1.12.67-1.94,1.09-2.52,2.23-1.59,3.11.08,7.1,4.92,9.57,4.84,2.47,9.05,1.47,10.63-1.64.58-1.13.42-2.14.31-3.43-.06-.69.18-1.46.69-2.47,1.12-2.2,6.33-2.29,10.46-.28.29.14.57.29.85.44,5.66,3.2,10.92,6.58,15.74,10.08,3.49-4.82,6.21-8.78,9.59-14.79.16-.29.32-.59.47-.9,2.14-4.38,1.95-7.72.51-8.45-.56-.29-1.24-.21-1.97-.09-1.62.26-3.16-.21-4.27-.77-3.86-1.97-4.46-8.63-1.84-13.77,2.62-5.14,8.55-8.52,12.34-6.59,1.11.56,2.35,1.53,3.03,2.96.32.67.67,1.25,1.24,1.54,1.41.72,3.91-.41,6.07-4.46.15-.29.26-.5.4-.79,2.71-5.95,5.03-11.78,6.84-17.47-5.65-1.85-11.52-4.06-17.43-6.75-.29-.13-.57-.27-.86-.43-4.06-2.16-6.81-6.23-5.91-8.51.27-.69.72-1.63,1.58-2.09,1.13-.6,2.02-1.18,2.59-2.31,1.52-2.99-.08-7.1-4.92-9.57s-9.11-1.35-10.63,1.64c-.58,1.13-.54,2.23-.34,3.49.17,1.08-.23,1.71-.76,2.47-1.4,2.01-6.23,2.23-10.36.22-.29-.14-.51-.25-.78-.41-5.69-3.22-10.97-6.64-15.77-10.17Z"/><path class="b" d="m73.77,139.61c5.89.97,12.14,1.55,18.67,1.84.31.01.56.01.88,0,4.6-.08,6.84-1.94,6.84-3.72,0-.63-.4-1.13-.91-1.67-.97-1.02-1.26-3.08-1.26-4.32,0-3.86,5.71-7.52,11.47-7.52,5.77,0,11.44,3.66,11.44,7.52,0,1.24-.13,3.13-1.1,4.15-.51.54-.96,1.52-.96,2.15,0,1.84,2.88,3.32,7.76,3.41.34,0,.68,0,1.02-.01,6.89-.28,11.67-.91,17.54-1.83-.97-5.88-1.56-12.14-1.84-18.67-.01-.32-.01-.56,0-.88.09-4.6,2.54-9.21,5.01-9.21,1.02,0,1.99.2,2.58.57,1.1.69,1.86,1.24,3.13,1.24,3.49,0,6.29-3.3,6.29-8.73s-2.79-8.73-6.29-8.73c-1.27,0-2.1.6-3.2,1.28-.58.36-1.38.51-2.52.51-2.47,0-4.91-4.6-5-9.2,0-.32,0-.64.01-.96.28-6.49.91-12.72,1.83-18.59-5.88-.92-10.64-1.55-17.53-1.83-.33-.01-.67-.02-1.02-.01-4.88.08-7.76,1.77-7.76,3.38,0,.63.37,1.2.81,1.8.97,1.32,1.25,2.91,1.25,4.15,0,4.34-5.67,7.9-11.44,7.9-5.77,0-11.47-3.74-11.47-8.01,0-1.24.29-2.79,1.26-4.04.46-.59.81-1.17.81-1.8,0-1.58-2.14-3.3-6.74-3.38-.32,0-.57,0-.88,0-6.53.28-12.78.87-18.67,1.84.92,5.88,1.61,12.1,1.89,18.59.01.32.02.63.01.96-.09,4.6-2.46,8.89-4.9,9.13-.73.07-1.78.1-2.58-.46-1.04-.73-1.97-1.26-3.24-1.26-3.36,0-6.29,3.3-6.29,8.73s2.93,8.73,6.29,8.73c1.27,0,2.23-.53,3.27-1.28.88-.64,1.63-.57,2.55-.45,2.43.33,4.81,4.54,4.9,9.13,0,.32,0,.57,0,.88-.28,6.53-.93,12.78-1.9,18.67Z"/><path class="b" d="m145.14,213.44c.97-5.89,1.55-12.14,1.84-18.67.01-.31.01-.56,0-.88-.09-4.6-1.81-6.74-3.39-6.74-.63,0-1.21.36-1.8.81-1.25.97-2.8,1.26-4.04,1.26-4.26,0-8.01-5.71-8.01-11.47,0-5.77,3.56-11.44,7.9-11.44,1.24,0,2.83.28,4.15,1.25.6.44,1.17.81,1.8.81,1.62,0,3.3-2.88,3.39-7.76,0-.34,0-.68-.01-1.02-.28-6.89-.91-11.66-1.83-17.53-5.88.92-12.1,1.55-18.6,1.83-.31.01-.63.02-.96.01-4.6-.09-9.2-2.53-9.2-5,0-1.14.14-1.93.51-2.52.69-1.1,1.28-1.93,1.28-3.2,0-3.49-3.3-6.29-8.73-6.29s-8.73,2.79-8.73,6.29c0,1.27.55,2.02,1.24,3.13.36.58.57,1.55.57,2.58,0,2.47-4.61,4.92-9.21,5.01-.32,0-.57,0-.88,0-6.53-.28-12.79-.88-18.67-1.84-.92,5.88-1.55,10.65-1.83,17.54-.01.33-.02.67-.01,1.02.09,4.88,1.57,7.76,3.41,7.76.63,0,1.61-.45,2.15-.96,1.02-.97,2.91-1.1,4.15-1.1,3.86,0,7.52,5.67,7.52,11.44,0,5.77-3.66,11.47-7.52,11.47-1.24,0-3.3-.29-4.32-1.26-.54-.51-1.04-.91-1.67-.91-1.78,0-3.64,2.24-3.72,6.83,0,.32,0,.57,0,.88.28,6.53.87,12.79,1.84,18.67h71.37Z"/></svg>